<svg xmlns="http://www.w3.org/2000/svg" viewBox="0 0 500 500"><g id="freepik--background-simple--inject-236"><path d="M464.5,110.18q-2.38-4-5-7.91C436.33,67.93,396.44,44.44,357.2,33.82a231.88,231.88,0,0,0-52.71-7.7c-116.62-3.95-163.07,88-201.61,111.68S5,202,9,287s65.22,165,183.81,170,126.5-48.42,192.71-68.19c43.82-13.08,75-57.26,90.2-98.08C496.5,235.08,495.52,162.81,464.5,110.18Z" style="fill:#407BFF"></path><path d="M464.5,110.18q-2.38-4-5-7.91C436.33,67.93,396.44,44.44,357.2,33.82a231.88,231.88,0,0,0-52.71-7.7c-116.62-3.95-163.07,88-201.61,111.68S5,202,9,287s65.22,165,183.81,170,126.5-48.42,192.71-68.19c43.82-13.08,75-57.26,90.2-98.08C496.5,235.08,495.52,162.81,464.5,110.18Z" style="fill:#fff;opacity:0.7000000000000001"></path></g><g id="freepik--Floor--inject-236"><line x1="27.99" y1="390.46" x2="475.39" y2="390.46" style="fill:none;stroke:#263238;stroke-linecap:round;stroke-linejoin:round"></line></g><g id="freepik--Wall--inject-236"><rect x="374.76" y="221.52" width="30.88" height="12.5" style="opacity:0.2"></rect><rect x="363" y="177.04" width="30.88" height="12.5" style="opacity:0.2"></rect><rect x="251.26" y="221.15" width="30.88" height="12.5" style="opacity:0.2"></rect><rect x="296.1" y="134.19" width="30.88" height="12.5" style="opacity:0.2"></rect><rect x="329.92" y="134.19" width="30.88" height="12.5" style="opacity:0.2"></rect><rect x="198.33" y="313.56" width="30.88" height="12.5" style="opacity:0.2"></rect><rect x="182.16" y="329" width="30.88" height="12.5" style="opacity:0.2"></rect><rect x="346.09" y="194.32" width="30.88" height="12.5" style="opacity:0.1"></rect><rect x="392.4" y="264.52" width="30.88" height="12.5" style="opacity:0.1"></rect><rect x="211.56" y="283.64" width="30.88" height="12.5" style="opacity:0.1"></rect><rect x="246.85" y="283.64" width="30.88" height="12.5" style="opacity:0.1"></rect><rect x="249.79" y="265.99" width="30.88" height="12.5" style="opacity:0.1"></rect><rect x="381.37" y="194.32" width="30.88" height="12.5" style="opacity:0.1"></rect><rect x="289.48" y="327.74" width="30.88" height="12.5" style="opacity:0.2"></rect><rect x="272.58" y="345.02" width="30.88" height="12.5" style="opacity:0.1"></rect><rect x="307.86" y="345.02" width="30.88" height="12.5" style="opacity:0.1"></rect><rect x="139.81" y="172.2" width="30.88" height="12.5" style="opacity:0.2"></rect><rect x="122.9" y="189.47" width="30.88" height="12.5" style="opacity:0.1"></rect><rect x="158.18" y="189.47" width="30.88" height="12.5" style="opacity:0.1"></rect><rect x="127.76" y="265.26" width="30.88" height="12.5" style="opacity:0.2"></rect><rect x="264.49" y="205.5" width="30.88" height="12.5" style="opacity:0.1"></rect><rect x="218.18" y="328.27" width="30.88" height="12.5" style="opacity:0.1"></rect><rect x="313.74" y="118.76" width="30.88" height="12.5" style="opacity:0.1"></rect><rect x="110.11" y="223.88" width="30.88" height="12.5" style="opacity:0.2"></rect><rect x="127.76" y="208.44" width="30.88" height="12.5" style="opacity:0.1"></rect><rect x="206.41" y="133.3" width="30.88" height="12.5" style="opacity:0.1"></rect><rect x="313.74" y="221.52" width="30.88" height="12.5" style="opacity:0.2"></rect><rect x="196.19" y="48.45" width="30.88" height="12.5" style="opacity:0.2"></rect><rect x="71.45" y="137" width="30.88" height="12.5" style="opacity:0.1"></rect><rect x="109.95" y="147.78" width="30.88" height="12.5" style="opacity:0.1"></rect><rect x="34.49" y="160.1" width="30.88" height="12.5" style="opacity:0.1"></rect><rect x="90.27" y="160.66" width="30.88" height="12.5" style="opacity:0.1"></rect><rect x="177.3" y="65.97" width="30.88" height="12.5" style="opacity:0.2"></rect></g><g id="freepik--Basket--inject-236"><rect x="50.95" y="38.43" width="95.05" height="85.38" style="fill:none;stroke:#263238;stroke-linecap:round;stroke-linejoin:round"></rect><rect x="78.61" y="63.27" width="39.74" height="35.7" style="fill:none;stroke:#263238;stroke-linecap:round;stroke-linejoin:round;stroke-width:3px"></rect><path d="M78.61,98.63s2.44,9.57,4.15,17.4,1,12.2,1,12.2" style="fill:none;stroke:#263238;stroke-linecap:round;stroke-linejoin:round"></path><path d="M83.14,97.8a148.7,148.7,0,0,1,4.39,17.48,88.33,88.33,0,0,1,1.33,13.11" style="fill:none;stroke:#263238;stroke-linecap:round;stroke-linejoin:round"></path><path d="M90.19,97.35s3.24,15.37,3.81,20.19a104,104,0,0,1,.57,10.39" style="fill:none;stroke:#263238;stroke-linecap:round;stroke-linejoin:round"></path><path d="M118.2,98.63S115.76,108.2,114,116s-1,12.2-1,12.2" style="fill:none;stroke:#263238;stroke-linecap:round;stroke-linejoin:round"></path><path d="M113.66,97.8a147.45,147.45,0,0,0-4.38,17.48A88.33,88.33,0,0,0,108,128.39" style="fill:none;stroke:#263238;stroke-linecap:round;stroke-linejoin:round"></path><path d="M106.61,97.35s-3.23,15.37-3.81,20.19a104,104,0,0,0-.57,10.39" style="fill:none;stroke:#263238;stroke-linecap:round;stroke-linejoin:round"></path><path d="M97.43,98.41a163.94,163.94,0,0,1,1.72,16.72c.19,6.93-.19,12.8-.19,12.8" style="fill:none;stroke:#263238;stroke-linecap:round;stroke-linejoin:round"></path><path d="M79.14,101.12s14.67,14.76,19.44,24.25" style="fill:none;stroke:#263238;stroke-linecap:round;stroke-linejoin:round"></path><path d="M82,112.57a153.65,153.65,0,0,1,12.77,14" style="fill:none;stroke:#263238;stroke-linecap:round;stroke-linejoin:round"></path><path d="M83.72,123.26a10.68,10.68,0,0,1,5,3.62" style="fill:none;stroke:#263238;stroke-linecap:round;stroke-linejoin:round"></path><path d="M83.72,99.61S100.86,118,108.1,126.28" style="fill:none;stroke:#263238;stroke-linecap:round;stroke-linejoin:round"></path><path d="M92.1,98.86s14.1,14.61,20.76,26.36" style="fill:none;stroke:#263238;stroke-linecap:round;stroke-linejoin:round"></path><path d="M100.1,98.71s9.72,7.38,13.91,16" style="fill:none;stroke:#263238;stroke-linecap:round;stroke-linejoin:round"></path><path d="M108.86,99.46s5.53,5.58,6.86,8.44" style="fill:none;stroke:#263238;stroke-linecap:round;stroke-linejoin:round"></path><rect x="76.73" y="95.35" width="44.57" height="4.3" style="fill:#263238;stroke:#263238;stroke-linecap:round;stroke-linejoin:round"></rect><rect x="57.65" y="123.78" width="6.31" height="16.38" style="fill:#263238;stroke:#263238;stroke-linecap:round;stroke-linejoin:round"></rect><rect x="132.02" y="123.78" width="6.31" height="16.38" style="fill:#263238;stroke:#263238;stroke-linecap:round;stroke-linejoin:round"></rect></g><g id="freepik--character-3--inject-236"><path d="M389,336.81s.92,43.28.46,46.95a79.86,79.86,0,0,0-.92,16.06c.46,6.43,1.67,25.82,1.67,25.82a64.62,64.62,0,0,0-3,6.61c-1.93,4.68-10.74,7.71-9.09,12.67s6.61,4.95,11.84,2.75,6.61-4.68,8.54-8,4.95-3.86,5.78-7.44-1-5.6-.77-10.19,2.26-16.5,3.18-24.3-.23-13.54.23-17.9,2.75-37.77,2.75-38.46S389,336.81,389,336.81Z" style="fill:#fff;stroke:#263238;stroke-linecap:round;stroke-linejoin:round"></path><path d="M398.44,439.69c1.92-3.31,4.95-3.86,5.78-7.44.51-2.24-.67-6.16-.93-9.2a12.37,12.37,0,0,1-5.53,3.79s-1.09-4.21-4.35-4.08-3.24,2.88-3.24,2.88a64.62,64.62,0,0,0-3,6.61c-1.93,4.68-10.74,7.71-9.09,12.67s6.61,4.95,11.84,2.75S396.51,443,398.44,439.69Z" style="fill:#fff;stroke:#263238;stroke-linecap:round;stroke-linejoin:round"></path><path d="M398.44,436.9c-2.72,4.07-4.08,7.74-11.15,9.51a7.72,7.72,0,0,1-9.15-4.13,3.73,3.73,0,0,0-.08,2.64c1.65,4.95,6.61,4.95,11.84,2.75s6.61-4.68,8.54-8,4.95-3.86,5.78-7.44a10.89,10.89,0,0,0,.2-1.33A26.29,26.29,0,0,0,398.44,436.9Z" style="fill:#fff;stroke:#263238;stroke-linecap:round;stroke-linejoin:round"></path><path d="M444.63,336.81s-.92,43.28-.46,46.95a79.13,79.13,0,0,1,.92,16.06c-.46,6.43-1.67,26.18-1.67,26.18a65.6,65.6,0,0,1,3,6.61c1.92,4.68,10.73,7.71,9.08,12.66s-6.61,5-11.84,2.76-6.61-4.68-8.53-8-5-3.85-5.78-7.43.55-8.26.27-13.77-1.77-13.28-2.69-21.08.23-13.54-.23-17.9S424,342.09,424,341.4,444.63,336.81,444.63,336.81Z" style="fill:#fff;stroke:#263238;stroke-linecap:round;stroke-linejoin:round"></path><path d="M435.16,440c-1.93-3.3-5-3.85-5.78-7.43-.52-2.25-.18-4.92.09-8,2.39,2.9,6.36,2.55,6.36,2.55s1.09-4.22,4.35-4.08,3.24,2.88,3.24,2.88a65.6,65.6,0,0,1,3,6.61c1.92,4.68,10.73,7.71,9.08,12.66s-6.61,5-11.84,2.76S437.08,443.35,435.16,440Z" style="fill:#fff;stroke:#263238;stroke-linecap:round;stroke-linejoin:round"></path><path d="M435.15,437.25c2.72,4.08,4.08,7.75,11.15,9.52a7.73,7.73,0,0,0,9.16-4.14,3.74,3.74,0,0,1,.07,2.64c-1.65,5-6.61,5-11.84,2.76s-6.61-4.68-8.53-8-5-3.85-5.78-7.43a9.46,9.46,0,0,1-.2-1.33A26.4,26.4,0,0,1,435.15,437.25Z" style="fill:#fff;stroke:#263238;stroke-linecap:round;stroke-linejoin:round"></path><path d="M409.54,169.19s-1.36-11.3.9-15.36,14.31-5.88,20.49-3.77,8.13,11.6,9.18,14.76,18.08,11.9,18.38,19.13-5.12,14-7.68,14.76-4.22.61-3.31,3.17,5,5.72,1.2,10.84-7.68,6-8,7.68a22.56,22.56,0,0,0-.15,4.22s-9.95-5.42-15.37-5.42-14.76.9-17.92.6-13.71-5.57-11.9-13.86,8.43-10.54,8.89-13.85S409.54,169.19,409.54,169.19Z" style="fill:#263238;stroke:#263238;stroke-linecap:round;stroke-linejoin:round"></path><path d="M417.67,164.67s-.9-3.16.9-4.52,4.52-.6,5.28.91a6.65,6.65,0,0,1,.45,3.46Z" style="fill:#fff;stroke:#263238;stroke-linecap:round;stroke-linejoin:round"></path><path d="M384.6,302.85,375,334.05s7.57,4.59,20.88,8.72S414.66,346,414.66,346L416,341.4l2.29,5a87.75,87.75,0,0,0,15.84-1.83c8.95-1.84,22.25-8.26,22.25-8.26l-8-32.81S409.16,308.58,384.6,302.85Z" style="fill:#263238;stroke:#263238;stroke-linecap:round;stroke-linejoin:round"></path><path d="M378,332.45,385.41,303l-.81-.18L375,334.05s7.57,4.59,20.88,8.72S414.66,346,414.66,346L416,341.4C403.88,342.09,378,332.45,378,332.45Z" style="fill:#fff;stroke:#263238;stroke-linecap:round;stroke-linejoin:round"></path><path d="M444.13,304l9.08,29.36a79.24,79.24,0,0,1-37.17,8l2.29,5a87.75,87.75,0,0,0,15.84-1.83c8.95-1.84,22.25-8.26,22.25-8.26l-8-32.81S446.83,303.74,444.13,304Z" style="fill:#fff;stroke:#263238;stroke-linecap:round;stroke-linejoin:round"></path><line x1="416.04" y1="341.4" x2="416.5" y2="316.85" style="fill:none;stroke:#9e9e9e;stroke-linecap:round;stroke-linejoin:round"></line><path d="M409.84,215.88s-10.55-.3-14.61.76-33.29,4.21-33.29,4.21-16.54,12.56-14.89,13.77,6.76-.36,20.31-.36,20.94-.45,20.94-.45,3,25.91,3.16,28.32-3.61,21.23-4.67,27.56-4.94,15-4.94,15,9.16,6.55,25.73,6.7,42.63-3.31,42.63-3.31-11.75-46.09-11.6-48.35,2.41-22.6,2.41-22.6,34.49,2.41,41.42,1.06,4.07-4.49,3.77-5.88c-.74-3.34-4.52-5.72-5.88-7.23s-9.94,0-13.4-.45-15.82-2.11-19.59-3.16-6.77-2.86-14-3.77-9.64-1.05-9.64-1.05Z" style="fill:#fff;stroke:#263238;stroke-linecap:round;stroke-linejoin:round"></path><path d="M447.34,221.46c-3.76-1.06-6.77-2.86-14-3.77s-9.64-1.05-9.64-1.05l-13.86-.76s-10.55-.3-14.61.76c-2.62.68-15.66,2.23-24.62,3.25l5.63,14.3c7.86-.12,12.06-.38,12.06-.38s3,25.91,3.16,28.32-3.61,21.23-4.67,27.56-4.94,15-4.94,15,9.16,6.55,25.73,6.7,42.63-3.31,42.63-3.31-11.75-46.09-11.6-48.35,2.41-22.6,2.41-22.6,4.62.33,10.82.67L455,222.91C451.78,222.41,448.86,221.88,447.34,221.46Z" style="fill:#407BFF;stroke:#263238;stroke-linecap:round;stroke-linejoin:round"></path><path d="M404.06,220.8a18.36,18.36,0,0,0,6.25,16" style="fill:none;stroke:#263238;stroke-linecap:round;stroke-linejoin:round"></path><path d="M427.87,222.37a43.45,43.45,0,0,1-5.21,7.82" style="fill:none;stroke:#263238;stroke-linecap:round;stroke-linejoin:round"></path><path d="M401.8,220.63s-1.05,10.25,2.6,18.08" style="fill:none;stroke:#263238;stroke-linecap:round;stroke-linejoin:round"></path><path d="M411,206.7l-2.71,12.2s3.77,5.87,8.29,5.87,9.94-4.82,10.09-6.33-1.51-9.79-1.51-9.79S414.06,208.65,411,206.7Z" style="fill:#fff;stroke:#263238;stroke-linecap:round;stroke-linejoin:round"></path><polygon points="420.72 211.99 409.84 215.88 412.25 206.82 420.72 211.99" style="fill:#263238;stroke:#263238;stroke-linecap:round;stroke-linejoin:round"></polygon><path d="M396,211.14c.9,1.05,4.06,1,3.63,1.81a2.16,2.16,0,0,1-2.56,1.22c-1.45-.23-2.37-2-2.37-2S395.07,210.09,396,211.14Z" style="fill:#fff;stroke:#263238;stroke-linecap:round;stroke-linejoin:round"></path><path d="M358.53,230.43a15.22,15.22,0,0,0,5.77-4.85,84,84,0,0,0,5.1-8.86c1.11-1.94,10.06-12.08,12.1-14.38.28,1,.72,2.65,1.24,4.57.95,3.43,1.8,3.26,2.65,4.76a28.8,28.8,0,0,0,3.45,5.18c1.34,1.42,2,2,2.88,1.66.31-.11.08-.73-.34-1.49a3.7,3.7,0,0,0,2.29,1.15c1.08,0,1-.28,1-.28a3.88,3.88,0,0,0,1.56,0,.76.76,0,0,0,.66-.79,1.72,1.72,0,0,0,1.79.14c.88-.54-1.37-2.51-2.41-4.63s-1.85-5.78-3.5-7.82-4-5.71-5.79-7.76a3.37,3.37,0,0,0-3.62-1.35,7.22,7.22,0,0,0-3.31,1c-2.12,1-13.2,11.14-19.26,15.13s-12.55,13.71-13.1,16.31-2.76,6.4-.62,6.56a4.52,4.52,0,0,0,1.56-.18" style="fill:#fff;stroke:#263238;stroke-linecap:round;stroke-linejoin:round"></path><path d="M394.65,217.89a39.81,39.81,0,0,1-2.22-3.58c-.42-.94-2.08-4.09-2.38-4.81" style="fill:none;stroke:#263238;stroke-linecap:round;stroke-linejoin:round"></path><path d="M396.87,217.09s-1.75-3-2.47-4.67A40.25,40.25,0,0,0,392,208.1" style="fill:none;stroke:#263238;stroke-linecap:round;stroke-linejoin:round"></path><line x1="390.86" y1="216.34" x2="387.52" y2="210.43" style="fill:none;stroke:#263238;stroke-linecap:round;stroke-linejoin:round"></line><path d="M437.17,212c-.9,1.05-4.06,1-3.63,1.82a2.16,2.16,0,0,0,2.56,1.22c1.45-.23,2.37-2,2.37-2S438.07,211,437.17,212Z" style="fill:#fff;stroke:#263238;stroke-linecap:round;stroke-linejoin:round"></path><path d="M486.08,235.52c2.15-.16-.05-4-.61-6.56s-7-12.32-13.1-16.3-17.14-14.09-19.26-15.13a7.36,7.36,0,0,0-3.32-1s-1.85-.7-3.62,1.36-4.13,5.71-5.78,7.75-2.45,5.71-3.5,7.83-3.29,4.09-2.41,4.62a1.73,1.73,0,0,0,1.79-.13.75.75,0,0,0,.66.79,4,4,0,0,0,1.56,0s-.1.25,1,.29a3.77,3.77,0,0,0,2.29-1.16c-.42.76-.65,1.39-.34,1.49.86.3,1.54-.23,2.87-1.65a28.69,28.69,0,0,0,3.46-5.18c.85-1.51,1.7-1.33,2.64-4.76.53-1.92,1-3.53,1.25-4.58,2,2.3,11,12.45,12.09,14.38a86.17,86.17,0,0,0,5.11,8.87A14.91,14.91,0,0,0,472.3,230" style="fill:#fff;stroke:#263238;stroke-linecap:round;stroke-linejoin:round"></path><path d="M438.49,218.79a40.79,40.79,0,0,0,2.22-3.57c.42-.95,2.08-4.09,2.38-4.82" style="fill:#fff;stroke:#263238;stroke-linecap:round;stroke-linejoin:round"></path><path d="M436.27,218s1.75-3,2.47-4.67a40.79,40.79,0,0,1,2.42-4.33" style="fill:#fff;stroke:#263238;stroke-linecap:round;stroke-linejoin:round"></path><line x1="442.37" y1="217.39" x2="445.61" y2="211.34" style="fill:none;stroke:#263238;stroke-linecap:round;stroke-linejoin:round"></line><path d="M435.14,189.52s2.72-2.41,3.32,1.21-5,7.08-5,7.08Z" style="fill:#fff;stroke:#263238;stroke-linecap:round;stroke-linejoin:round"></path><path d="M413.6,165a15.25,15.25,0,0,0-9.18,10.7c-1.81,8.13-.76,19.73,1.05,23.34s6.63,13.41,12.2,14.31,13.41-6.93,15.36-13.7,4.37-22.6,1.81-28.47S420.23,160,413.6,165Z" style="fill:#fff;stroke:#263238;stroke-linecap:round;stroke-linejoin:round"></path><path d="M417.37,196.3s2.71,1.21,4.22-.15" style="fill:none;stroke:#263238;stroke-linecap:round;stroke-linejoin:round"></path><path d="M413.3,199.62s3.17,2.71,6.63,2.71a8.29,8.29,0,0,0,5.72-2.56" style="fill:none;stroke:#263238;stroke-linecap:round;stroke-linejoin:round"></path><path d="M408.18,184.86a9.9,9.9,0,0,1,7.23-.61" style="fill:none;stroke:#263238;stroke-linecap:round;stroke-linejoin:round"></path><path d="M424,184.86s4.52-1.06,7.08,1.65" style="fill:none;stroke:#263238;stroke-linecap:round;stroke-linejoin:round"></path><path d="M413.15,188.85c0,1-.47,1.73-1,1.73s-1.06-.78-1.06-1.73.48-1.74,1.06-1.74S413.15,187.89,413.15,188.85Z" style="fill:#263238"></path><ellipse cx="427.16" cy="188.85" rx="1.05" ry="1.73" style="fill:#263238"></ellipse><path d="M413.6,165a15.25,15.25,0,0,0-9.18,10.7,45.1,45.1,0,0,0-.93,9.34,14.35,14.35,0,0,0,2.88-6.18c.61-3.92,4.37-11,15.07-11.15a12.18,12.18,0,0,1,12.95,11.9c-.15,2.71-1.05,3.62-.15,6,.28.74.66,1.63,1.05,2.5.84-6.52,1.07-13.48-.45-17C432.28,165.27,420.23,160,413.6,165Z" style="fill:#263238;stroke:#263238;stroke-linecap:round;stroke-linejoin:round"></path><path d="M403.51,188.32s-1.81-3.16-3.46.6,4.67,8.29,4.67,8.29Z" style="fill:#fff;stroke:#263238;stroke-linecap:round;stroke-linejoin:round"></path></g><g id="freepik--character-2--inject-236"><path d="M215.52,422.49s-6.43,8-10.54,12.6-5.41,7.2-3.61,9,4.89,5.66,12.86,3.34,9.52-4.37,13.63-9,7.2-3.34,8.49-9S219.38,418.11,215.52,422.49Z" style="fill:#fff;stroke:#263238;stroke-linecap:round;stroke-linejoin:round"></path><path d="M236.35,429.43a2.57,2.57,0,0,0,0-1.17,17,17,0,0,0-8.48,7.08c-3.34,5.66-7.2,8.23-15.43,9.78-7.28,1.36-10.93-2.91-11.68-3.91a2.68,2.68,0,0,0,.62,2.88c1.81,1.8,4.89,5.66,12.86,3.34s9.52-4.37,13.63-9S235.06,435.09,236.35,429.43Z" style="fill:#fff;stroke:#263238;stroke-linecap:round;stroke-linejoin:round"></path><path d="M302.23,422.49s6.43,8,10.54,12.6,5.4,7.2,3.6,9-4.88,5.66-12.86,3.34-9.51-4.37-13.63-9-7.2-3.34-8.48-9S298.37,418.11,302.23,422.49Z" style="fill:#fff;stroke:#263238;stroke-linecap:round;stroke-linejoin:round"></path><path d="M281.4,429.43a2.57,2.57,0,0,1,0-1.17,17,17,0,0,1,8.47,7.08c3.35,5.66,7.21,8.23,15.44,9.78,7.28,1.36,10.93-2.91,11.68-3.91a2.66,2.66,0,0,1-.63,2.88c-1.8,1.8-4.88,5.66-12.86,3.34s-9.51-4.37-13.63-9S282.68,435.09,281.4,429.43Z" style="fill:#fff;stroke:#263238;stroke-linecap:round;stroke-linejoin:round"></path><path d="M304.5,420c-.26-2.31-3.08-3.08-3.08-3.08s-.52-9.52-.52-17.75.26-23.92,0-38.32-3.6-32.4-3.34-47.83-4.89-52.72-4.89-52.72l-33.3,6.27-33.31-6.27s-5.14,37.29-4.88,52.72-3.09,33.43-3.35,47.83,0,30.09,0,38.32-.51,17.75-.51,17.75-2.83.77-3.09,3.08-.77,4.89-.77,4.89a76,76,0,0,0,12.86,5.4,22.72,22.72,0,0,0,9.52.77s2.31-.51,3.08-7.46-.51-8,.52-11.57,10-77.41,10.8-84.61,7.71-46,7.71-46l1.42-.15,1.41.15s7,38.83,7.72,46,9.77,81,10.8,84.61-.26,4.63.51,11.57,3.09,7.46,3.09,7.46a22.67,22.67,0,0,0,9.51-.77,76,76,0,0,0,12.86-5.4S304.76,422.36,304.5,420Z" style="fill:#263238;stroke:#263238;stroke-linecap:round;stroke-linejoin:round"></path><path d="M293.62,267.57c-.56-4.4-.95-7.23-.95-7.23l-33.3,6.27-33.31-6.27s-.38,2.76-.93,7.08c5.64,2.29,19.55,7.19,34.82,7.19C274.9,274.61,288,269.91,293.62,267.57Z" style="fill:#407BFF;stroke:#263238;stroke-linecap:round;stroke-linejoin:round"></path><path d="M230.37,169s-8-.51-11,.17-11.17,5.42-11.17,5.42-21,5.76-26.76,7.62-18.8,16.94-17.11,18.29,13-1.52,22.87-3.39,34.71-6.77,34.71-6.77,10.5,29,11.18,31.5-9.65,36.75-9.65,38.44,3.55,3.39,4.91,3.73a67.82,67.82,0,0,0,26.76,6.09c16.25.51,30.61-1.52,35.86-4.74s6.26-3.89,5.92-7.28-7.62-35.73-8.13-37.43,8.13-26.92,8.13-26.92,13.47,5.93,24.64,5.93,33.75,1.86,35.78.84-3.92-14.48-10.36-17-26.13-5.67-31.89-7-8.13-3.22-12.7-3.55a96.6,96.6,0,0,0-10.5,0Z" style="fill:#407BFF;stroke:#263238;stroke-linecap:round;stroke-linejoin:round"></path><path d="M253.06,162.9s-10-2.54-12-1.52-10.84,6.27-10.67,7.62,30.48,30,31.84,29.3,28.79-24.22,29.64-25.4-5.08-9-7.46-10.17-18.12.34-18.62.34Z" style="fill:#407BFF;stroke:#263238;stroke-linecap:round;stroke-linejoin:round"></path><path d="M253.4,151.56s-4.74,16.76-3.72,19.13,10.67,26.08,12.19,25.24,11.35-27.78,11.35-27.78l-1.87-16.76Z" style="fill:#b2b2b2;stroke:#263238;stroke-linecap:round;stroke-linejoin:round"></path><path d="M250.51,163.14l15.81-4.21-13.06-6.85C252.82,153.66,251.46,158.67,250.51,163.14Z" style="fill:#263238;stroke:#263238;stroke-linecap:round;stroke-linejoin:round"></path><path d="M261.87,195.93s20.15-18.29,23.88-23.2" style="fill:none;stroke:#263238;stroke-linecap:round;stroke-linejoin:round"></path><path d="M260.35,194.91s-18.46-16.59-22.7-24.22" style="fill:none;stroke:#263238;stroke-linecap:round;stroke-linejoin:round"></path><path d="M242.34,126s-4.26-5.72-4.62,2.44,5.72,9.25,5.72,9.25Z" style="fill:#b2b2b2;stroke:#263238;stroke-linecap:round;stroke-linejoin:round"></path><path d="M282.5,126.68s4.14-3.28,4.5,1-5.84,9.37-5.84,9.37Z" style="fill:#b2b2b2;stroke:#263238;stroke-linecap:round;stroke-linejoin:round"></path><path d="M254,99.55s-3.4-3.29-3.89-7.31,7.91-9.73,13.63-9.37,11.93,3.53,13.75,7.91-2.68,8-3.89,8.77-6.21.36-6.21.36Z" style="fill:#263238;stroke:#263238;stroke-linecap:round;stroke-linejoin:round"></path><path d="M249.52,99.57a11.8,11.8,0,0,0-4.74,3.77c-2,2.71-5,7.15-5.24,10-.36,4.26,2,10.46,2.19,11.31s.86,8.89,2.56,15.09,10.46,16.92,12.41,18.5,7.55,1.58,9.62.73S277.15,145.3,279,142.26s3.65-13.63,4.38-18.74,3.29-10.59.86-16.06-10.59-9.5-19-10C258.32,97.08,254,97.66,249.52,99.57Z" style="fill:#b2b2b2;stroke:#263238;stroke-linecap:round;stroke-linejoin:round"></path><path d="M284.21,107.46c-2.44-5.48-10.59-9.5-19-10-6.9-.4-11.25.18-15.7,2.09a11.8,11.8,0,0,0-4.74,3.77c-2,2.71-5,7.15-5.24,10-.36,4.26,2,10.46,2.19,11.31.1.33.24,1.71.48,3.63l1.59-1.8s2.19-5.23,2.07-8-2.07-9,7.91-12.9,20.32.49,23.25,4.26,1.33,10.59,1.82,13,1.83,3.16,2.56,5.11a10.33,10.33,0,0,0,.9,2c.44-2.42.8-4.71,1-6.4C284.08,118.41,286.64,112.93,284.21,107.46Z" style="fill:#263238;stroke:#263238;stroke-linecap:round;stroke-linejoin:round"></path><path d="M255.24,130.76c0,1.18-.57,2.13-1.28,2.13s-1.27-.95-1.27-2.13.57-2.13,1.27-2.13S255.24,129.58,255.24,130.76Z" style="fill:#263238"></path><path d="M271.06,130.76c0,1.18-.57,2.13-1.28,2.13s-1.27-.95-1.27-2.13.57-2.13,1.27-2.13S271.06,129.58,271.06,130.76Z" style="fill:#263238"></path><path d="M257.55,139.34s-2.06,1.22-.6,2.56,6.45,1.09,8.51.6,1-2.43.49-3.16" style="fill:none;stroke:#263238;stroke-linecap:round;stroke-linejoin:round"></path><path d="M254.27,145.18a11.53,11.53,0,0,0,7.91,3.29,8.1,8.1,0,0,0,6.93-3.53" style="fill:none;stroke:#263238;stroke-linecap:round;stroke-linejoin:round"></path><path d="M248.55,125.47a9.5,9.5,0,0,1,9.86-.61" style="fill:none;stroke:#263238;stroke-linecap:round;stroke-linejoin:round"></path><path d="M265.34,125.47a9.5,9.5,0,0,1,9.86-.61" style="fill:none;stroke:#263238;stroke-linecap:round;stroke-linejoin:round"></path><polygon points="249.68 170.69 260.86 223.87 272.54 170.53 267.97 181.7 260.86 214.56 254.42 181.36 249.68 170.69" style="fill:#263238;stroke:#263238;stroke-linecap:round;stroke-linejoin:round"></polygon><line x1="260.85" y1="223.87" x2="260.85" y2="231.15" style="fill:none;stroke:#263238;stroke-linecap:round;stroke-linejoin:round"></line><path d="M263.9,234.62a3.13,3.13,0,1,0-3.13,3.14l.08,3.05,1.53.34,1.21-5.18A3.19,3.19,0,0,0,263.9,234.62Z" style="fill:#fff;stroke:#263238;stroke-linecap:round;stroke-linejoin:round"></path><path d="M180.07,193.39a21.43,21.43,0,0,0,7.62-7.45c3.05-5.08,4.75-9.83,6.27-13S210,150.63,210,150.63l1.36-8.89a10.23,10.23,0,0,0-4.57,1.69c-2.88,1.69-17.44,17.1-25.57,23.37S165,187.46,164.49,191.19s-3.21,9.31-.17,9.31,5.76-2.71,5.76-2.71" style="fill:#407BFF;stroke:#263238;stroke-linecap:round;stroke-linejoin:round"></path><path d="M230.84,162.22c1.38,1.38,5.84,1,5.32,2.18a3.07,3.07,0,0,1-3.49,2c-2.07-.17-3.55-2.61-3.55-2.61S229.46,160.84,230.84,162.22Z" style="fill:#b2b2b2;stroke:#263238;stroke-linecap:round;stroke-linejoin:round"></path><path d="M211.4,141.74s2.54-1.19,5.25,1.52,6.44,7.62,9,10.33,4.06,7.79,5.76,10.67,5.08,5.42,3.89,6.27a2.45,2.45,0,0,1-2.54,0,1.06,1.06,0,0,1-.84,1.18,5.56,5.56,0,0,1-2.21.17s.17.34-1.35.51-3.9-1.53-4.57-2.71a30.21,30.21,0,0,0-2.2-3.05s5.25,5.93,4.06,6.44-2.2-.17-4.23-2a40,40,0,0,1-5.42-6.94c-1.36-2-2.54-1.69-4.24-6.44s-2.88-8.12-2.88-8.12S207.85,144.28,211.4,141.74Z" style="fill:#b2b2b2;stroke:#263238;stroke-linecap:round;stroke-linejoin:round"></path><path d="M229.69,171.88a56.74,56.74,0,0,1-3.5-4.81c-.69-1.29-3.37-5.55-3.87-6.54" style="fill:none;stroke:#263238;stroke-linecap:round;stroke-linejoin:round"></path><path d="M232.74,170.53s-2.79-4.05-4-6.33a56,56,0,0,0-3.86-5.85" style="fill:none;stroke:#263238;stroke-linecap:round;stroke-linejoin:round"></path><line x1="221.57" y1="166.63" x2="218.86" y2="162.12" style="fill:none;stroke:#263238;stroke-linecap:round;stroke-linejoin:round"></line><path d="M341.55,193.39a21.52,21.52,0,0,1-7.62-7.45c-3.05-5.08-4.74-9.83-6.27-13s-16.08-22.27-16.08-22.27l-1.36-8.89a10.23,10.23,0,0,1,4.57,1.69c2.88,1.69,17.44,17.1,25.57,23.37s16.26,20.66,16.77,24.39,3.22,9.31.17,9.31-5.76-2.71-5.76-2.71" style="fill:#407BFF;stroke:#263238;stroke-linecap:round;stroke-linejoin:round"></path><path d="M290.78,162.22c-1.38,1.38-5.84,1-5.32,2.18a3.07,3.07,0,0,0,3.49,2c2.07-.17,3.55-2.61,3.55-2.61S292.16,160.84,290.78,162.22Z" style="fill:#b2b2b2;stroke:#263238;stroke-linecap:round;stroke-linejoin:round"></path><path d="M310.22,141.74s-2.54-1.19-5.25,1.52-6.44,7.62-9,10.33-4.06,7.79-5.75,10.67-5.09,5.42-3.9,6.27a2.44,2.44,0,0,0,2.54,0,1.06,1.06,0,0,0,.85,1.18,5.51,5.51,0,0,0,2.2.17s-.17.34,1.35.51,3.9-1.53,4.58-2.71a28.63,28.63,0,0,1,2.2-3.05s-5.25,5.93-4.07,6.44,2.2-.17,4.24-2a41,41,0,0,0,5.42-6.94c1.35-2,2.54-1.69,4.23-6.44s2.88-8.12,2.88-8.12S313.78,144.28,310.22,141.74Z" style="fill:#b2b2b2;stroke:#263238;stroke-linecap:round;stroke-linejoin:round"></path><path d="M291.93,171.88a56.74,56.74,0,0,0,3.5-4.81c.7-1.29,3.37-5.55,3.87-6.54" style="fill:none;stroke:#263238;stroke-linecap:round;stroke-linejoin:round"></path><path d="M288.88,170.53s2.79-4.05,4-6.33a57.77,57.77,0,0,1,3.86-5.85" style="fill:none;stroke:#263238;stroke-linecap:round;stroke-linejoin:round"></path><line x1="300.06" y1="166.63" x2="302.77" y2="162.12" style="fill:none;stroke:#263238;stroke-linecap:round;stroke-linejoin:round"></line></g><g id="freepik--character-1--inject-236"><path d="M73.13,423.28s-5,8.09-8.09,11-8.36,8.35-5.75,11.74,11.23,4.18,15.92,2.09,8.09-7.57,11-10.18,6.52-5.22,6.52-9.13S74.69,422,73.13,423.28Z" style="fill:#fff;stroke:#263238;stroke-linecap:round;stroke-linejoin:round"></path><path d="M92.7,428.76a1.36,1.36,0,0,0-.12-.52,49.49,49.49,0,0,0-9.28,9.39c-2.87,4.17-5.22,6.26-11,8.09s-2.87-1.31-4.43-2.87-3.14-.52-6,1-2.34-3.13-2.34-3.13h-.05c-1,1.87-1.35,3.74-.22,5.21,2.61,3.39,11.23,4.18,15.92,2.09s8.09-7.57,11-10.18S92.7,432.67,92.7,428.76Z" style="fill:#fff;stroke:#263238;stroke-linecap:round;stroke-linejoin:round"></path><path d="M125.14,423.28s5,8.09,8.09,11,8.35,8.35,5.74,11.74-11.22,4.18-15.92,2.09-8.09-7.57-11-10.18-6.53-5.22-6.53-9.13S123.57,422,125.14,423.28Z" style="fill:#fff;stroke:#263238;stroke-linecap:round;stroke-linejoin:round"></path><path d="M105.56,428.76a1.36,1.36,0,0,1,.12-.52,49.49,49.49,0,0,1,9.28,9.39c2.87,4.17,5.22,6.26,11,8.09s2.87-1.31,4.44-2.87,3.13-.52,6,1,2.35-3.13,2.35-3.13h0c1,1.87,1.35,3.74.22,5.21-2.61,3.39-11.22,4.18-15.92,2.09s-8.09-7.57-11-10.18S105.56,432.67,105.56,428.76Z" style="fill:#fff;stroke:#263238;stroke-linecap:round;stroke-linejoin:round"></path><path d="M70.78,299.83s-.79,67.07,0,81.69,1.3,34.19,1.3,34.19-2.87,0-2.61,2.61S71,426.41,71,426.41s6.26,2.08,10.7,3.13,10.7,3.65,12,1.56,2.87-5,3.14-7.3-1.83-5.22-1.83-8.62,3.39-85.07,3.39-85.07,6,81.16,6.26,82.73-1,6.26-1,9.13.78,8.61.78,8.61a15.57,15.57,0,0,0,7.57,1.31c3.66-.52,9.92-2.61,11.48-3.66a20,20,0,0,1,5-1.82s-.26-5.22-.26-7.83-.78-1.05-.78-6V369.77c0-9.39-1.83-67.07-1.83-67.07S88.78,306.88,70.78,299.83Z" style="fill:#263238;stroke:#263238;stroke-linecap:round;stroke-linejoin:round"></path><path d="M91.1,205.1l-1.25,9.45-1.61,5.71s3.57,6.24,10.52,6.6,12.31-7.32,12.31-7.32-2.68-6.41-2.86-8.2a51.19,51.19,0,0,0-1.07-5.35S97.87,207.78,91.1,205.1Z" style="fill:#fff;stroke:#263238;stroke-linecap:round;stroke-linejoin:round"></path><path d="M97.37,206.45a22,22,0,0,1-6.27-1.35l-1.25,9.45c2-.85,13.29-6.12,13.29-6.12Z" style="fill:#263238;stroke:#263238;stroke-linecap:round;stroke-linejoin:round"></path><path d="M88.24,220.26a25.67,25.67,0,0,1-2-3c-1.6-2.68-2.67-2.68-3.57-2s-14.44,1.24-18.54,3.2-18,3-18,3-7.67,4.63-11.77,8.56-10.52,7.66-9.09,7.48,4.1,1.07,18.36,1.07,27.11-.71,27.11-.71-.89,54.57-1.07,57.42-1.25,6.77-.54,7.67,4.64,5,16.94,6.59,13.91,3.57,25.68,1.61,18.9-7,19.62-8.2-3.75-34.24-3.75-43,.89-20,.89-20,16.59-.71,26.21-.89,17.62.27,19.87-2.45-5.42-8.43-7.56-9.68-8.38-2.31-10-2.85-20.61-4-25.32-5.17-14.44-2.67-14.44-2.67a1.6,1.6,0,0,0-2-.54c-1.25.54-4.28,3.74-4.28,3.74S100.37,233.63,88.24,220.26Z" style="fill:#407BFF;stroke:#263238;stroke-linecap:round;stroke-linejoin:round"></path><path d="M116.59,219s-4.27,9.09-10.34,13.91" style="fill:none;stroke:#263238;stroke-linecap:round;stroke-linejoin:round"></path><path d="M82.89,219.37s10.52,23,18.73,26.92" style="fill:none;stroke:#263238;stroke-linecap:round;stroke-linejoin:round"></path><path d="M126.76,244s-6.42,23.36-15.87,34.24" style="fill:none;stroke:#263238;stroke-linecap:round;stroke-linejoin:round"></path><path d="M117,275.36s-10.52,13.55-19.79,18.54" style="fill:none;stroke:#263238;stroke-linecap:round;stroke-linejoin:round"></path><line x1="128.54" y1="240.05" x2="131.57" y2="231.31" style="fill:none;stroke:#263238;stroke-linecap:round;stroke-linejoin:round"></line><line x1="70.77" y1="237.91" x2="68.09" y2="227.21" style="fill:none;stroke:#263238;stroke-linecap:round;stroke-linejoin:round"></line><path d="M86.52,168.78S81.3,174.41,82,181.14s2.2,19.22,5.36,23.75,11.53,7.28,16.06,5.77,9.2-5.63,10.16-8.24,3.44-21.15,2.48-26.36-4.54-13.05-14.42-12.91S86.52,168.78,86.52,168.78Z" style="fill:#fff;stroke:#263238;stroke-linecap:round;stroke-linejoin:round"></path><path d="M82.54,188.14s-2.75-5.08-4.81-1.79.55,7.69,2.2,8.93a7.5,7.5,0,0,0,4.26,1.1Z" style="fill:#fff;stroke:#263238;stroke-linecap:round;stroke-linejoin:round"></path><path d="M116.18,187.45s1.38-2.47,4.26-.82.41,6.73-1,8A21.85,21.85,0,0,1,115,197.2Z" style="fill:#fff;stroke:#263238;stroke-linecap:round;stroke-linejoin:round"></path><path d="M102.59,166.72s-6.59,6.59-11.54,9.34a74.39,74.39,0,0,1-7,3.57s1,6.59.27,7.55a2.34,2.34,0,0,1-1.78,1,42.9,42.9,0,0,1-3.16-3c-1.23-1.37-1.78-1.37-1.92-3.3a35.77,35.77,0,0,1,.14-4.8s-3.71.68-3.16-4.81,5.35-15.38,14.83-19.77,18,0,19.36,2.88a34.46,34.46,0,0,1,1.92,4.81s2.61-2.34,5.5.82,6.45,11.54,5.76,14.56a9.21,9.21,0,0,1-3.57,4.94s-1.23,6.18-2.06,7-2.06.55-2.19-1.64-.69-7.83-.69-7.83Z" style="fill:#263238;stroke:#263238;stroke-linecap:round;stroke-linejoin:round"></path><path d="M94.62,186.22c0,1.21-.61,2.19-1.37,2.19s-1.37-1-1.37-2.19.61-2.2,1.37-2.2S94.62,185,94.62,186.22Z" style="fill:#263238"></path><path d="M107.39,186.22c0,1.21-.61,2.19-1.37,2.19s-1.37-1-1.37-2.19.61-2.2,1.37-2.2S107.39,185,107.39,186.22Z" style="fill:#263238"></path><path d="M96.68,193.08a5.57,5.57,0,0,0,2.61,1.38,5.16,5.16,0,0,0,4.12-1.38" style="fill:none;stroke:#263238;stroke-linecap:round;stroke-linejoin:round"></path><path d="M93.66,197.07s3.3,2.33,5.91,2.33,6.18-1.51,7.55-3.43" style="fill:none;stroke:#263238;stroke-linecap:round;stroke-linejoin:round"></path><path d="M87.89,181.82a8.79,8.79,0,0,1,7.15-1.1" style="fill:none;stroke:#263238;stroke-linecap:round;stroke-linejoin:round;stroke-width:2px"></path><path d="M102.73,181.14s4.53-2.34,7.55.82" style="fill:none;stroke:#263238;stroke-linecap:round;stroke-linejoin:round;stroke-width:2px"></path><path d="M74.45,211.51c1,1.12,4.36,1.06,3.9,1.94a2.33,2.33,0,0,1-2.76,1.31c-1.55-.24-2.54-2.18-2.54-2.18S73.48,210.38,74.45,211.51Z" style="fill:#fff;stroke:#263238;stroke-linecap:round;stroke-linejoin:round"></path><path d="M34.26,232.22A16.33,16.33,0,0,0,40.45,227a94.5,94.5,0,0,0,5.48-9.51c1.18-2.08,10.79-13,13-15.44.3,1.12.77,2.85,1.34,4.91,1,3.68,1.93,3.49,2.84,5.11a30.76,30.76,0,0,0,3.71,5.56c1.43,1.52,2.16,2.09,3.09,1.78.32-.12.08-.79-.37-1.61A4.05,4.05,0,0,0,72,219.06c1.16-.05,1-.31,1-.31a4.22,4.22,0,0,0,1.67,0,.8.8,0,0,0,.71-.84,1.87,1.87,0,0,0,1.93.14c.94-.57-1.48-2.69-2.6-5s-2-6.21-3.75-8.4-4.31-6.12-6.21-8.33-3.89-1.45-3.89-1.45a7.84,7.84,0,0,0-3.55,1c-2.28,1.12-14.17,12-20.68,16.24S23.19,226.88,22.6,229.67s-3,6.87-.66,7a4.82,4.82,0,0,0,1.66-.19" style="fill:#fff;stroke:#263238;stroke-linecap:round;stroke-linejoin:round"></path><path d="M73,218.75a42.49,42.49,0,0,1-2.38-3.84c-.45-1-2.24-4.39-2.56-5.17" style="fill:none;stroke:#263238;stroke-linecap:round;stroke-linejoin:round"></path><path d="M75.41,217.9s-1.88-3.23-2.65-5a43.56,43.56,0,0,0-2.59-4.64" style="fill:none;stroke:#263238;stroke-linecap:round;stroke-linejoin:round"></path><line x1="68.96" y1="217.08" x2="65.38" y2="210.75" style="fill:none;stroke:#263238;stroke-linecap:round;stroke-linejoin:round"></line><path d="M33,234.7a37.7,37.7,0,0,0,5-3.39,36.81,36.81,0,0,0,7.49-8.38c1.6-2.67,7.84-10.34,7.84-10.34l-8.56-7S34.75,211,29.4,217.4s-8.92,12.13-9.63,15.7.36,4.81,4.1,4.63a35.61,35.61,0,0,0,7-1.07" style="fill:#407BFF;stroke:#263238;stroke-linecap:round;stroke-linejoin:round"></path><path d="M122.11,211.51c-1,1.12-4.36,1.06-3.9,1.94a2.33,2.33,0,0,0,2.76,1.31c1.55-.24,2.54-2.18,2.54-2.18S123.08,210.38,122.11,211.51Z" style="fill:#fff;stroke:#263238;stroke-linecap:round;stroke-linejoin:round"></path><path d="M162.3,232.22a16.33,16.33,0,0,1-6.19-5.21,92.59,92.59,0,0,1-5.48-9.51c-1.18-2.08-10.79-13-13-15.44-.3,1.12-.77,2.85-1.34,4.91-1,3.68-1.93,3.49-2.84,5.11a31.29,31.29,0,0,1-3.71,5.56c-1.43,1.52-2.16,2.09-3.09,1.78-.32-.12-.08-.79.37-1.61a4.05,4.05,0,0,1-2.46,1.25c-1.16-.05-1-.31-1-.31a4.26,4.26,0,0,1-1.68,0,.8.8,0,0,1-.7-.84,1.87,1.87,0,0,1-1.93.14c-.94-.57,1.48-2.69,2.6-5s2-6.21,3.75-8.4,4.31-6.12,6.21-8.33,3.89-1.45,3.89-1.45a7.84,7.84,0,0,1,3.55,1c2.28,1.12,14.17,12,20.68,16.24s13.47,14.72,14.06,17.51,3,6.87.66,7a4.91,4.91,0,0,1-1.67-.19" style="fill:#fff;stroke:#263238;stroke-linecap:round;stroke-linejoin:round"></path><path d="M123.53,218.75a42.49,42.49,0,0,0,2.38-3.84c.45-1,2.24-4.39,2.56-5.17" style="fill:none;stroke:#263238;stroke-linecap:round;stroke-linejoin:round"></path><path d="M121.15,217.9s1.88-3.23,2.65-5a43.56,43.56,0,0,1,2.59-4.64" style="fill:none;stroke:#263238;stroke-linecap:round;stroke-linejoin:round"></path><line x1="127.6" y1="217.08" x2="131.18" y2="210.75" style="fill:none;stroke:#263238;stroke-linecap:round;stroke-linejoin:round"></line><path d="M163.59,234.7a37.7,37.7,0,0,1-5-3.39,36.81,36.81,0,0,1-7.49-8.38c-1.6-2.67-7.84-10.34-7.84-10.34l8.56-7s10,5.35,15.33,11.76,8.92,12.13,9.63,15.7-.36,4.81-4.1,4.63a35.61,35.61,0,0,1-7-1.07" style="fill:#407BFF;stroke:#263238;stroke-linecap:round;stroke-linejoin:round"></path></g></svg>